# xmcd
#
# Track frame offsets:
#	150
#	12753
#	33995
#	47670
#	63421
#	78765
#	94936
#	107767
#	125893
#	136399
#	152395
#	173846
#	189626
#	201807
#
# Disc length: 2880 seconds
#
# Revision: 1
# Processed by: cddbd v1.5.2PL0 Copyright (c) Steve Scherf et al.
# Submitted via: audiograbber 1.83.01
#
DISCID=b40b3e0e
DTITLE=Judy Weldon - Country Treasures 009
DYEAR=1900
DGENRE=Country
TTITLE0=The Zevenbergen Festval - Judy Welden
TTITLE1=Come Again Sir - Brand Bros
TTITLE2=This Chick Broke Out Of The Shell - Stephaie Siggen
TTITLE3=The Rose And A Stone - Judy Welden
TTITLE4=Confusion, What압 The Solution - Judy Welden
TTITLE5=Maybe It압 Me, Maybe It압 You - Alan Franklin
TTITLE6=What압 God Up To - Gladys Mitchell
TTITLE7=Hint Of Heaven - Brand Bros
TTITLE8=Treasure Memories - Staphanie Sieggen
TTITLE9=Grandma압 Quilt - Judy Weldon
TTITLE10=Nick Of Time - Paul Brand
TTITLE11=True Love For You Love Feeling - Staphanie Sieggen
TTITLE12=Blues Had Been My Handle - Judy Weldon
TTITLE13=Don앖 Mess With The Irs - Lew Brodsky
EXTD=
EXTT0=
EXTT1=
EXTT2=
EXTT3=
EXTT4=
EXTT5=
EXTT6=
EXTT7=
EXTT8=
EXTT9=
EXTT10=
EXTT11=
EXTT12=
EXTT13=
PLAYORDER=
